{"title":"Raja Natwarlal 2014 DvDScrRip 480p x264 Hindi Audio AC-3 YsB Tea","uid":10921583,"size":816267101,"categoryP":"video","categoryS":"movies","magnet":"?xt=urn:btih:ccbbf553585d7f9a564d08bf080d824fcd1c30fb&amp;dn=Raja+Natwarlal+2014+DvDScrRip+480p+x264+Hindi+Audio+AC-3+YsB+Tea&amp;tr=udp%3A%2F%2Ftracker.openbittorrent.com%3A80&amp;tr=udp%3A%2F%2Fopen.demonii.com%3A1337&amp;tr=udp%3A%2F%2Ftracker.coppersurfer.tk%3A6969&amp;tr=udp%3A%2F%2Fexodus.desync.com%3A6969","seeders":1,"leechers":0,"uploader":"Dj_YsB","files":7,"time":1409336807,"description":"Raja Natwarlal 2014 DvDScrRip 480p x264 Hindi Audio AC-3 YsB TeaM FL\n &lt;a href=&quot;\nhttp://i.imgur.com/NWv7Iei.jpg&quot; rel=&quot;nofollow&quot; target=&quot;_NEW&quot;&gt;\nhttp://i.imgur.com/NWv7Iei.jpg&lt;/a&gt;\n\nInfo:\nGeneral\nComplete name                            : Raja Natwarlal 2014 DvDScrRip 480p x264 Hindi Audio AC-3 YsB TeaM FL.mkv\nFormat                                   : Matroska\nFormat version                           : Version 2\nFile size                                : 770 MiB\nDuration                                 : 2h 18mn\nOverall bit rate                         : 780 Kbps\n\nVideo\nID                                       : 1\nFormat                                   : AVC\nDuration                                 : 2h 18mn\nBit rate                                 : 650 Kbps\nWidth                                    : 848 pixels\nHeight                                   : 400 pixels\nFrame rate                               : 29.970 fps\nStream size                              : 629 MiB (82%)\n\nAudio\nID                                       : 2\nFormat                                   : AC-3\nDuration                                 : 2h 18mn\nBit rate mode                            : Constant\nBit rate                                 : 128 Kbps\nChannel(s)                               : 2 channels\nChannel positions                        : Front: L R\nSampling rate                            : 48.0 KHz\nStream size                              : 126 MiB (16%)\n\nScreenShot: &lt;a href=&quot;\nhttp://i.imgur.com/cG7OLU7.jpg&quot; rel=&quot;nofollow&quot; target=&quot;_NEW&quot;&gt;\nhttp://i.imgur.com/cG7OLU7.jpg&lt;/a&gt; &lt;a href=&quot;\nhttp://i.imgur.com/oMT29rl.jpg&quot; rel=&quot;nofollow&quot; target=&quot;_NEW&quot;&gt;\nhttp://i.imgur.com/oMT29rl.jpg&lt;/a&gt; &lt;a href=&quot;\nhttp://i.imgur.com/bLhMuQW.jpg&quot; rel=&quot;nofollow&quot; target=&quot;_NEW&quot;&gt;\nhttp://i.imgur.com/bLhMuQW.jpg&lt;/a&gt;\n\nThanks\nGPsoft.\nTeaM FL - Dj YsB, Swaraj, Hemkumar, Sajan...","torrent":{"xt":"urn:btih:ccbbf553585d7f9a564d08bf080d824fcd1c30fb","amp;dn":"Raja+Natwarlal+2014+DvDScrRip+480p+x264+Hindi+Audio+AC-3+YsB+Tea","amp;tr":["udp%3A%2F%2Ftracker.openbittorrent.com%3A80","udp%3A%2F%2Fopen.demonii.com%3A1337","udp%3A%2F%2Ftracker.coppersurfer.tk%3A6969","udp%3A%2F%2Fexodus.desync.com%3A6969"],"infoHash":"ccbbf553585d7f9a564d08bf080d824fcd1c30fb","infoHashBuffer":{"type":"Buffer","data":[204,187,245,83,88,93,127,154,86,77,8,191,8,13,130,79,205,28,48,251]},"announce":[],"urlList":[]}}